<svg width="111" height="111" viewBox="0 0 111 111" fill="none" xmlns="http://www.w3.org/2000/svg">
<g clip-path="url(#clip0_1259_34362)">
<path d="M41.8275 61.6475H38.4951V74.8535H41.8275V61.6475Z" fill="#ACACAC"/>
<path d="M68.698 65.4316C68.564 65.3619 67.4926 64.7265 65.8987 64.7265C63.7401 64.7265 62.2465 66.2264 62.2465 68.2489C62.2465 70.2111 63.6778 71.7744 65.8987 71.7744C67.4651 71.7744 68.5545 71.1527 68.698 71.0735V74.6181C68.2842 74.7353 67.1474 75.0878 65.6591 75.0878C61.9129 75.0878 58.627 72.5038 58.627 68.2489C58.627 64.3053 61.6036 61.4131 65.6591 61.4131C67.2276 61.4131 68.3845 61.7941 68.698 61.887V65.4316Z" fill="#ACACAC"/>
<path d="M33.9138 65.4316C33.7798 65.3619 32.7084 64.7265 31.1145 64.7265C28.9559 64.7265 27.4623 66.2264 27.4623 68.2489C27.4623 70.2111 28.8936 71.7744 31.1145 71.7744C32.6809 71.7744 33.7703 71.1527 33.9138 71.0735V74.6181C33.5 74.7353 32.3632 75.0878 30.8749 75.0878C27.1287 75.0878 23.8428 72.5038 23.8428 68.2489C23.8428 64.3053 26.8194 61.4131 30.8749 61.4131C32.4434 61.4131 33.6003 61.7941 33.9138 61.887V65.4316Z" fill="#ACACAC"/>
<path d="M79.1811 64.7761C77.204 64.7761 75.7358 66.332 75.7358 68.2489C75.7358 70.17 77.204 71.7248 79.1811 71.7248C81.156 71.7248 82.6285 70.17 82.6285 68.2489C82.6285 66.332 81.156 64.7761 79.1811 64.7761ZM86.1594 68.2489C86.1594 72.0267 83.2429 75.0878 79.1811 75.0878C75.1193 75.0878 72.207 72.0267 72.207 68.2489C72.207 64.4774 75.1193 61.4131 79.1811 61.4131C83.2429 61.4131 86.1594 64.4774 86.1594 68.2489Z" fill="#ACACAC"/>
<path d="M54.4648 64.6492C54.4152 64.6333 53.0124 64.2459 51.8597 64.2459C50.5245 64.2459 49.7982 64.6935 49.7982 65.3279C49.7982 66.1322 50.7778 66.413 51.3256 66.5861L52.245 66.8785C54.4078 67.5667 55.3937 69.0477 55.3937 70.6563C55.3937 73.9739 52.4762 75.0886 49.926 75.0886C48.1537 75.0886 46.4933 74.7624 46.3297 74.7276V71.6887C46.6231 71.7626 48.0207 72.1795 49.4763 72.1795C51.1346 72.1795 51.8967 71.695 51.8967 70.9466C51.8967 70.2774 51.237 69.8911 50.4105 69.6314C50.2088 69.5638 49.9059 69.4688 49.699 69.4013C47.8433 68.8144 46.2959 67.724 46.2959 65.5379C46.2959 63.0679 48.1452 61.4097 51.2169 61.4097C52.8393 61.4097 54.3656 61.8034 54.4648 61.8298V64.6492Z" fill="#ACACAC"/>
<path d="M20.3092 47.4553C20.3092 46.5455 19.5661 45.8076 18.6551 45.8076C17.7442 45.8076 17 46.5455 17 47.4553V50.9218C17 51.837 17.7442 52.5758 18.6551 52.5758C19.5661 52.5758 20.3092 51.837 20.3092 50.9218V47.4553Z" fill="#ACACAC"/>
<path d="M29.3971 42.9052C29.3971 41.9953 28.6539 41.2554 27.743 41.2554C26.831 41.2554 26.0879 41.9953 26.0879 42.9052V50.9221C26.0879 51.8373 26.831 52.5752 27.743 52.5752C28.6539 52.5752 29.3971 51.8373 29.3971 50.9221V42.9052Z" fill="#ACACAC"/>
<path d="M38.4849 36.68C38.4849 35.7701 37.7418 35.0312 36.8309 35.0312C35.9189 35.0312 35.1758 35.7701 35.1758 36.68V54.216C35.1758 55.1311 35.9189 55.87 36.8309 55.87C37.7418 55.87 38.4849 55.1311 38.4849 54.216V36.68Z" fill="#ACACAC"/>
<path d="M47.5719 42.9052C47.5719 41.9953 46.8287 41.2554 45.9178 41.2554C45.0058 41.2554 44.2627 41.9953 44.2627 42.9052V50.9221C44.2627 51.8373 45.0058 52.5752 45.9178 52.5752C46.8287 52.5752 47.5719 51.8373 47.5719 50.9221V42.9052Z" fill="#ACACAC"/>
<path d="M56.6492 47.4553C56.6492 46.5455 55.9114 45.8076 55.0046 45.8076C54.0937 45.8076 53.3506 46.5455 53.3506 47.4553V50.9218C53.3506 51.837 54.0937 52.5758 55.0046 52.5758C55.9114 52.5758 56.6492 51.837 56.6492 50.9218V47.4553Z" fill="#ACACAC"/>
<path d="M56.6539 47.4553C56.6539 46.5455 55.9108 45.8076 54.9998 45.8076C54.0889 45.8076 53.3447 46.5455 53.3447 47.4553V50.9218C53.3447 51.837 54.0889 52.5758 54.9998 52.5758C55.9108 52.5758 56.6539 51.837 56.6539 50.9218V47.4553Z" fill="#ACACAC"/>
<path d="M65.7418 42.9052C65.7418 41.9953 64.9987 41.2554 64.0877 41.2554C63.1757 41.2554 62.4326 41.9953 62.4326 42.9052V50.9221C62.4326 51.8373 63.1757 52.5752 64.0877 52.5752C64.9987 52.5752 65.7418 51.8373 65.7418 50.9221V42.9052Z" fill="#ACACAC"/>
<path d="M74.8297 36.68C74.8297 35.7701 74.0866 35.0312 73.1756 35.0312C72.2636 35.0312 71.5205 35.7701 71.5205 36.68V54.216C71.5205 55.1311 72.2636 55.87 73.1756 55.87C74.0866 55.87 74.8297 55.1311 74.8297 54.216V36.68Z" fill="#ACACAC"/>
<path d="M83.9166 42.9052C83.9166 41.9953 83.1735 41.2554 82.2625 41.2554C81.3505 41.2554 80.6074 41.9953 80.6074 42.9052V50.9221C80.6074 51.8373 81.3505 52.5752 82.2625 52.5752C83.1735 52.5752 83.9166 51.8373 83.9166 50.9221V42.9052Z" fill="#ACACAC"/>
<path d="M92.9939 47.4553C92.9939 46.5455 92.2561 45.8076 91.3494 45.8076C90.4384 45.8076 89.6953 46.5455 89.6953 47.4553V50.9218C89.6953 51.837 90.4384 52.5758 91.3494 52.5758C92.2561 52.5758 92.9939 51.837 92.9939 50.9218V47.4553Z" fill="#ACACAC"/>
<path d="M91.0928 73.1143V73.3211H90.5038V74.8528H90.2621V73.3211H89.6699V73.1143H91.0928Z" fill="#ACACAC"/>
<path d="M91.2168 73.1143H91.5957L92.1161 74.5403H92.1246L92.6281 73.1143H92.9996V74.8528H92.7516V73.4278H92.7431L92.2154 74.8528H91.9863L91.4712 73.4278H91.4596V74.8528H91.2168V73.1143Z" fill="#ACACAC"/>
</g>
<defs>
<clipPath id="clip0_1259_34362">
<rect width="76" height="40.1111" fill="white" transform="translate(17 35)"/>
</clipPath>
</defs>
</svg>
