<svg width="91" height="91" viewBox="0 0 91 91" fill="none" xmlns="http://www.w3.org/2000/svg">
<g clip-path="url(#clip0_1260_34446)">
<path d="M14.7503 35.9521H18.2448V47.0342C18.2448 52.8648 14.5186 54.9113 9.11275 54.9113C3.72619 54.9113 0 52.8648 0 47.0342V36.3962C0 36.0873 0.154453 35.9521 0.46336 35.9521H3.95787V46.8604C3.95787 50.3549 5.5024 51.8029 9.11275 51.8029C12.7424 51.8029 14.2869 50.3549 14.2869 46.8604V36.3962C14.2869 36.0873 14.4414 35.9521 14.7503 35.9521ZM54.3097 38.9833V43.6555H63.1521C63.3066 43.6555 63.3645 43.7327 63.3066 43.8872L62.3413 46.2812C62.2447 46.4936 62.1096 46.5901 61.82 46.5901H56.6265C54.9275 46.5901 54.3097 47.1114 54.3097 48.2505V51.5519H66.2798C66.4343 51.5519 66.4922 51.6292 66.4343 51.7836L65.4303 54.2742C65.3338 54.4866 65.1986 54.5831 64.909 54.5831H51.7998C50.7959 54.5831 50.4097 54.2356 50.4097 53.4826V37.2457C50.4097 36.3383 50.9117 35.9521 52.2246 35.9521H66.2798C66.4343 35.9521 66.4922 36.0294 66.4343 36.1645L65.4303 38.6744C65.3338 38.8868 65.1986 38.9833 64.909 38.9833H54.3097ZM43.2083 49.4282C43.2083 53.1544 40.5826 54.5831 36.8951 54.5831H27.1259C26.1026 54.5831 25.7358 54.2356 25.7358 53.4826V37.2457C25.7358 36.3383 26.2185 35.9521 27.5506 35.9521H35.4857C38.9609 35.9521 42.3202 36.5507 42.3202 40.6823C42.3202 42.4585 41.6831 43.9644 40.1579 44.756C42.2623 45.3159 43.2083 47.2079 43.2083 49.4282ZM29.5778 43.7134H35.7753C37.8218 43.7134 38.401 42.9219 38.401 41.3001C38.401 39.6783 37.8218 38.9061 35.7753 38.9061H29.5778V43.7134ZM39.2891 49.0807C39.2891 47.3624 38.6906 46.5129 36.4896 46.5129H31.9139C30.2149 46.5129 29.5778 47.0342 29.5778 48.1733V51.6292H36.4896C38.6906 51.6292 39.2891 50.7797 39.2891 49.0807ZM90.6448 54.5831H87.0924C86.8028 54.5831 86.687 54.4673 86.5711 54.2742L82.8063 47.4782H79.3504C77.6514 47.4782 77.0143 47.9995 77.0143 49.1386V54.5831H73.6164C73.3074 54.5831 73.153 54.4286 73.153 54.139V37.2457C73.153 36.3383 73.655 35.9521 74.9678 35.9521H82.9415C87.5944 35.9521 90.3939 37.1685 90.3939 41.6862C90.3939 45.1807 88.7142 46.5515 86.629 47.0921L90.8186 54.2549C90.8958 54.3707 90.8958 54.5831 90.6448 54.5831ZM86.4746 41.7635C86.4746 39.8714 85.9533 38.9447 83.5207 38.9447H77.0143V44.5822H83.5207C85.9533 44.5822 86.4746 43.6748 86.4746 41.7635Z" fill="#ACACAC"/>
</g>
<defs>
<clipPath id="clip0_1260_34446">
<rect width="90.863" height="90.863" fill="white"/>
</clipPath>
</defs>
</svg>
