<svg width="111" height="111" viewBox="0 0 111 111" fill="none" xmlns="http://www.w3.org/2000/svg">
<g clip-path="url(#clip0_1260_34436)">
<path d="M110.137 53.9493V52.0124H107.732V49.0012L107.651 49.0261L105.392 49.7173L105.347 49.7309V52.0125H101.782V50.7414C101.782 50.1496 101.914 49.6967 102.175 49.3946C102.434 49.0962 102.804 48.9445 103.277 48.9445C103.616 48.9445 103.968 49.0245 104.322 49.1823L104.411 49.2219V47.1821L104.369 47.1667C104.039 47.0481 103.59 46.9883 103.033 46.9883C102.331 46.9883 101.694 47.141 101.138 47.4435C100.582 47.7465 100.144 48.1791 99.8377 48.7291C99.5322 49.2784 99.3772 49.9128 99.3772 50.615V52.0124H97.7024V53.9493H99.3772V62.1092H101.782V53.9493H105.347V59.1348C105.347 61.2704 106.355 62.3526 108.341 62.3526C108.668 62.3526 109.011 62.3144 109.362 62.2395C109.719 62.1626 109.963 62.0858 110.106 62.0037L110.138 61.985V60.0301L110.04 60.0948C109.909 60.1818 109.747 60.2528 109.556 60.3057C109.365 60.3595 109.205 60.3864 109.081 60.3864C108.616 60.3864 108.272 60.261 108.058 60.0135C107.842 59.7638 107.732 59.3271 107.732 58.7162V53.9493H110.137ZM92.3331 60.3867C91.4604 60.3867 90.7724 60.0974 90.2875 59.5274C89.7997 58.9545 89.5525 58.1378 89.5525 57.1C89.5525 56.0294 89.7997 55.1915 90.2877 54.6085C90.7729 54.0293 91.4544 53.7353 92.3135 53.7353C93.1472 53.7353 93.8109 54.0161 94.2862 54.5702C94.764 55.1272 95.0065 55.9584 95.0065 57.0415C95.0065 58.138 94.7785 58.9802 94.3289 59.5436C93.8823 60.1027 93.2109 60.3867 92.3331 60.3867ZM92.44 51.7691C90.7751 51.7691 89.4527 52.257 88.5098 53.2192C87.5675 54.1814 87.0898 55.5131 87.0898 57.1775C87.0898 58.7584 87.5561 60.0299 88.476 60.9563C89.3959 61.883 90.6477 62.3524 92.1965 62.3524C93.8104 62.3524 95.1065 61.8578 96.049 60.8823C96.9913 59.9078 97.4688 58.5887 97.4688 56.9632C97.4688 55.3577 97.0207 54.0766 96.1368 53.1564C95.2524 52.2358 94.0084 51.7691 92.44 51.7691ZM83.2133 51.7691C82.0807 51.7691 81.1439 52.0588 80.4283 52.63C79.7083 53.2046 79.343 53.9581 79.343 54.87C79.343 55.344 79.4219 55.7651 79.577 56.1222C79.7331 56.4805 79.9746 56.796 80.2955 57.0607C80.614 57.3234 81.1056 57.5984 81.7569 57.8783C82.3046 58.1037 82.7129 58.2943 82.9724 58.4445C83.2259 58.5917 83.4059 58.7397 83.5075 58.8839C83.6063 59.0249 83.6564 59.218 83.6564 59.4562C83.6564 60.1346 83.1484 60.4646 82.1031 60.4646C81.7154 60.4646 81.2731 60.3837 80.7887 60.2241C80.3077 60.0669 79.8537 59.8367 79.4427 59.5415L79.3428 59.47V61.7848L79.3795 61.8018C79.7197 61.9589 80.1486 62.0913 80.6541 62.1955C81.1587 62.2998 81.6172 62.3529 82.0154 62.3529C83.2444 62.3529 84.234 62.0618 84.9562 61.4872C85.6829 60.9087 86.0512 60.1373 86.0512 59.1939C86.0512 58.5133 85.8529 57.9297 85.4621 57.459C85.074 56.9921 84.4004 56.5635 83.4608 56.1846C82.7122 55.8842 82.2327 55.6348 82.0348 55.4433C81.8441 55.2584 81.7473 54.9968 81.7473 54.6656C81.7473 54.3719 81.8668 54.1367 82.1122 53.9462C82.3594 53.7547 82.7037 53.6574 83.1354 53.6574C83.536 53.6574 83.9458 53.7206 84.3535 53.8447C84.7608 53.9687 85.1185 54.1348 85.4172 54.3379L85.5154 54.4051V52.2092L85.4777 52.1931C85.2022 52.0749 84.8389 51.9738 84.3976 51.8918C83.9583 51.8102 83.5598 51.7691 83.2133 51.7691ZM73.0751 60.3867C72.2026 60.3867 71.5144 60.0974 71.0296 59.5274C70.5416 58.9545 70.2949 58.138 70.2949 57.1C70.2949 56.0294 70.5419 55.1915 71.0301 54.6085C71.5149 54.0293 72.1962 53.7353 73.0558 53.7353C73.8892 53.7353 74.5528 54.0161 75.0283 54.5702C75.5061 55.1272 75.7485 55.9584 75.7485 57.0415C75.7485 58.138 75.5204 58.9802 75.0708 59.5436C74.6243 60.1027 73.9532 60.3867 73.0751 60.3867ZM73.1823 51.7691C71.5169 51.7691 70.1944 52.257 69.252 53.2192C68.3098 54.1814 67.8317 55.5131 67.8317 57.1775C67.8317 58.759 68.2984 60.0299 69.2183 60.9563C70.1382 61.883 71.3899 62.3524 72.9387 62.3524C74.5524 62.3524 75.8488 61.8578 76.7913 60.8823C77.7334 59.9078 78.211 58.5887 78.211 56.9632C78.211 55.3577 77.7629 54.0766 76.8787 53.1564C75.9941 52.2358 74.7503 51.7691 73.1823 51.7691ZM64.1821 53.7609V52.0124H61.807V62.109H64.1821V56.9442C64.1821 56.0659 64.3812 55.3444 64.7741 54.7995C65.162 54.261 65.679 53.9882 66.3101 53.9882C66.5241 53.9882 66.7642 54.0234 67.0243 54.0932C67.2817 54.1626 67.4681 54.2379 67.5781 54.3172L67.6779 54.3895V51.9951L67.6394 51.9786C67.4183 51.8846 67.1053 51.8372 66.7094 51.8372C66.1126 51.8372 65.5785 52.029 65.121 52.4066C64.7194 52.7384 64.4292 53.1935 64.2073 53.7609H64.1821ZM57.5538 51.7691C56.4642 51.7691 55.4923 52.0028 54.6656 52.4633C53.8373 52.925 53.1967 53.5841 52.7608 54.4221C52.3268 55.2581 52.1065 56.2347 52.1065 57.3238C52.1065 58.2778 52.3201 59.1532 52.7424 59.9248C53.1648 60.6976 53.7627 61.3023 54.5196 61.7216C55.2754 62.1404 56.1489 62.3528 57.1161 62.3528C58.2448 62.3528 59.2085 62.1271 59.9811 61.6821L60.0123 61.6642V59.4883L59.9125 59.5612C59.5625 59.8161 59.1714 60.0196 58.7506 60.1662C58.3308 60.3127 57.9481 60.3867 57.6125 60.3867C56.6806 60.3867 55.9324 60.0951 55.3894 59.5202C54.8452 58.9446 54.5692 58.1363 54.5692 57.1191C54.5692 56.0956 54.857 55.2665 55.4241 54.6547C55.9895 54.0447 56.7391 53.7353 57.6517 53.7353C58.4323 53.7353 59.193 53.9997 59.9127 54.5217L60.0123 54.5941V52.3014L59.9802 52.2833C59.7093 52.1317 59.3399 52.0065 58.8814 51.9116C58.4248 51.8169 57.9781 51.7691 57.5538 51.7691ZM50.4708 52.0125H48.0958V62.109H50.4708V52.0125ZM49.3076 47.7113C48.9167 47.7113 48.5757 47.8443 48.2956 48.108C48.0144 48.3725 47.8717 48.7054 47.8717 49.0983C47.8717 49.4851 48.0127 49.812 48.2913 50.0694C48.5681 50.326 48.9101 50.4561 49.3077 50.4561C49.7052 50.4561 50.0485 50.326 50.3286 50.0698C50.6105 49.812 50.7534 49.4852 50.7534 49.0983C50.7534 48.7192 50.6143 48.3896 50.3402 48.1187C50.0662 47.8483 49.7187 47.7113 49.3076 47.7113ZM43.3817 51.2675V62.109H45.8055V48.0204H42.4509L38.1869 58.485L34.0489 48.0204H30.5576V62.1089H32.8354V51.2665H32.9136L37.2832 62.109H39.0021L43.3035 51.2675H43.3817Z" fill="#ACACAC"/>
<path d="M11.1728 54.4853H0V43.3125H11.1728V54.4853Z" fill="#ACACAC"/>
<path d="M23.5085 54.4853H12.3359V43.3125H23.5085V54.4853Z" fill="#ACACAC"/>
<path d="M11.1725 66.8255H0V55.6528H11.1725V66.8255Z" fill="#ACACAC"/>
<path d="M23.5085 66.8255H12.3359V55.6528H23.5085V66.8255Z" fill="#ACACAC"/>
</g>
<defs>
<clipPath id="clip0_1260_34436">
<rect width="110.137" height="110.137" fill="white"/>
</clipPath>
</defs>
</svg>
