<svg width="110" height="110" viewBox="0 0 110 110" fill="none" xmlns="http://www.w3.org/2000/svg">
<path d="M4.16518 58.4303C4.16518 59.6884 4.44168 60.6556 4.8027 61.24C5.27601 62.0055 5.98235 62.3303 6.70197 62.3303C7.63048 62.3303 8.4793 62.0996 10.1166 59.8357C11.4278 58.021 12.9733 55.4745 14.0129 53.8771L15.7733 51.1713C16.9965 49.2925 18.4116 47.2037 20.0355 45.7886C21.3601 44.6331 22.7897 43.9907 24.2289 43.9907C26.6438 43.9907 28.9451 45.3901 30.7055 48.0151C32.6326 50.8899 33.5683 54.511 33.5683 58.248C33.5683 60.4696 33.13 62.1021 32.385 63.3916C31.6654 64.6388 30.2624 65.8849 27.9019 65.8849V62.329C29.9231 62.329 30.4266 60.472 30.4266 58.347C30.4266 55.3188 29.7203 51.9573 28.1651 49.5557C27.0615 47.8521 25.6307 46.8113 24.0562 46.8113C22.3538 46.8113 20.9846 48.0948 19.4451 50.384C18.6265 51.5999 17.7861 53.0826 16.8431 54.7549L15.8047 56.595C13.7183 60.2945 13.1895 61.1361 12.1474 62.5271C10.3194 64.9612 8.75821 65.8849 6.70318 65.8849C4.2654 65.8849 2.72352 64.8296 1.76845 63.2382C0.987245 61.9427 0.604492 60.2414 0.604492 58.3023L4.16518 58.4303Z" fill="#ACACAC"/>
<path d="M3.41211 48.2672C5.04454 45.7509 7.40022 43.9917 10.1024 43.9917C11.6673 43.9917 13.2224 44.4554 14.8464 45.7811C16.6237 47.2312 18.517 49.6183 20.8799 53.5545L21.7275 54.9672C23.7729 58.3745 24.9356 60.1265 25.6166 60.9536C26.492 62.0149 27.1053 62.3312 27.9022 62.3312C29.9235 62.3312 30.427 60.4742 30.427 58.3492L33.5675 58.2501C33.5675 60.4718 33.1292 62.1042 32.3842 63.3938C31.6646 64.641 30.2615 65.8871 27.901 65.8871C26.434 65.8871 25.1336 65.5683 23.6968 64.2124C22.592 63.1716 21.3001 61.323 20.3064 59.6604L17.3506 54.7221C15.8679 52.2432 14.5071 50.3959 13.7187 49.5591C12.8711 48.6596 11.7832 47.5729 10.0445 47.5729C8.63783 47.5729 7.44369 48.5594 6.44395 50.0699L3.41211 48.2672Z" fill="#ACACAC"/>
<path d="M10.0441 47.5707C8.63747 47.5707 7.44333 48.5572 6.44358 50.0677C5.02969 52.2012 4.16518 55.3779 4.16518 58.4303C4.16518 59.6884 4.44168 60.6556 4.8027 61.24L1.76724 63.2394C0.987245 61.9427 0.604492 60.2414 0.604492 58.3023C0.604492 54.7778 1.57164 51.1036 3.41175 48.2662C5.04418 45.7499 7.39986 43.9907 10.1021 43.9907L10.0441 47.5707Z" fill="#ACACAC"/>
<path d="M40.4885 44.6836H44.607L51.6101 57.3519L58.6143 44.6836H62.6435V65.5008H59.2832V49.5459L53.1411 60.5938H49.9885L43.8476 49.5459V65.4995H40.4873V44.6836H40.4885ZM73.171 52.4449C70.761 52.4449 69.3109 54.2585 68.9631 56.5043H77.141C76.972 54.1908 75.6378 52.4449 73.171 52.4449ZM65.6319 57.7829C65.6319 53.0583 68.6854 49.6195 73.229 49.6195C77.6988 49.6195 80.3672 53.0148 80.3672 58.0353V58.9577H68.9631C69.3676 61.4003 70.9892 63.0461 73.6021 63.0461C75.6873 63.0461 76.9901 62.4098 78.2265 61.2458L80.0111 63.4312C78.3291 64.9779 76.1908 65.869 73.4825 65.869C68.5635 65.8714 65.6319 62.2842 65.6319 57.7829ZM84.4411 52.7431H81.3489V49.9926H84.4411V45.4431H87.683V49.9926H92.3811V52.7431H87.683V59.716C87.683 62.097 88.4437 62.9422 90.3152 62.9422C91.1688 62.9422 91.6591 62.8686 92.3823 62.749V65.4706C91.4816 65.7253 90.6219 65.8425 89.691 65.8425C86.1918 65.8425 84.4423 63.9299 84.4423 60.1036L84.4411 52.7431ZM106.031 55.4188C105.38 53.7755 103.928 52.5644 101.793 52.5644C99.0195 52.5644 97.2434 54.5325 97.2434 57.7382C97.2434 60.8643 98.8782 62.9277 101.66 62.9277C103.847 62.9277 105.408 61.6551 106.031 60.0722V55.4188ZM109.273 65.4995H106.091V63.3286C105.201 64.6073 103.584 65.8714 100.962 65.8714C96.7459 65.8714 93.929 62.3421 93.929 57.7382C93.929 53.0909 96.8147 49.6195 101.141 49.6195C103.28 49.6195 104.958 50.4744 106.091 51.9849V49.9926H109.273V65.4995Z" fill="#ACACAC"/>
</svg>
