<svg width="110" height="110" viewBox="0 0 110 110" fill="none" xmlns="http://www.w3.org/2000/svg">
<g clip-path="url(#clip0_1260_34439)">
<path fill-rule="evenodd" clipRule="evenodd" d="M68.2386 64.3399C61.8702 69.0487 52.607 71.5575 44.6175 71.5575C33.4245 71.5575 23.3895 67.4276 15.7474 60.5575C15.1684 60.0171 15.6702 59.2838 16.4035 59.7083C24.6245 64.4943 34.7754 67.3504 45.2737 67.3504C52.3368 67.3504 60.1333 65.8838 67.3123 62.8346C68.393 62.4101 69.2807 63.568 68.2386 64.3399Z" fill="#ACACAC"/>
<path fill-rule="evenodd" clipRule="evenodd" d="M70.9016 61.2908C70.0911 60.2487 65.4981 60.7891 63.4525 61.0592C62.8349 61.1364 62.7191 60.5961 63.2981 60.2101C66.9647 57.6242 72.9472 58.3961 73.6419 59.2452C74.3367 60.0943 73.449 66.1154 70.0139 68.9715C69.4735 69.3961 68.9718 69.1645 69.2033 68.5856C69.9753 66.6557 71.7121 62.3715 70.9016 61.2908Z" fill="#ACACAC"/>
<path fill-rule="evenodd" clipRule="evenodd" d="M63.5684 42.07V39.5612C63.5684 39.1752 63.8386 38.9436 64.186 38.9436H75.3789C75.7263 38.9436 76.0351 39.2138 76.0351 39.5612V41.684C76.0351 42.0314 75.7263 42.4945 75.186 43.2665L69.3965 51.5261C71.5579 51.4875 73.8351 51.7963 75.7649 52.877C76.1895 53.1086 76.3053 53.4945 76.3439 53.8419V56.505C76.3439 56.891 75.9579 57.3156 75.5333 57.084C72.0982 55.27 67.5053 55.077 63.7228 57.1226C63.3368 57.3156 62.9123 56.9296 62.9123 56.5436V53.9963C62.9123 53.6103 62.9123 52.9156 63.3368 52.298L70.0526 42.6875H64.2246C63.8772 42.6875 63.5684 42.4173 63.5684 42.07ZM22.7719 57.6243H19.3754C19.0667 57.5857 18.7965 57.3542 18.7579 57.0454V39.5998C18.7579 39.2524 19.0667 38.9822 19.414 38.9822H22.5789C22.9263 38.9822 23.1579 39.2524 23.1965 39.5612V41.8384H23.2737C24.0842 39.6384 25.6667 38.5963 27.7509 38.5963C29.8737 38.5963 31.2246 39.6384 32.1509 41.8384C32.9614 39.6384 34.8526 38.5963 36.8596 38.5963C38.2877 38.5963 39.8316 39.1752 40.7965 40.5261C41.8772 41.9928 41.6456 44.1156 41.6456 46.0068V57.0454C41.6456 57.3928 41.3368 57.6629 40.9895 57.6629H37.6316C37.2842 57.6243 37.014 57.3542 37.014 57.0454V47.7822C37.014 47.0489 37.0912 45.1963 36.9368 44.5015C36.6667 43.3436 35.9333 42.9963 34.9298 42.9963C34.1193 42.9963 33.2316 43.5366 32.8842 44.4244C32.5368 45.3121 32.5754 46.7787 32.5754 47.7822V57.0454C32.5754 57.3928 32.2667 57.6629 31.9193 57.6629H28.5228C28.1754 57.6243 27.9053 57.3542 27.9053 57.0454V47.7822C27.9053 45.8524 28.214 42.9577 25.821 42.9577C23.3895 42.9577 23.4667 45.7366 23.4667 47.7822V57.0454C23.4281 57.3542 23.1579 57.6243 22.7719 57.6243ZM85.6842 38.5963C90.7403 38.5963 93.4807 42.9191 93.4807 48.4384C93.4807 53.7647 90.4702 58.0103 85.6842 58.0103C80.7439 58.0103 78.0421 53.6875 78.0421 48.284C78.0035 42.8419 80.7439 38.5963 85.6842 38.5963ZM85.6842 42.1857C83.1754 42.1857 83.0211 45.6208 83.0211 47.7437C83.0211 49.8665 82.9825 54.4208 85.6456 54.4208C88.2702 54.4208 88.4246 50.7542 88.4246 48.5156C88.4246 47.0489 88.3474 45.2735 87.9228 43.884C87.5368 42.6489 86.7649 42.1857 85.6842 42.1857ZM100.004 57.6243H96.607C96.2596 57.5857 95.9895 57.3156 95.9895 57.0068V39.5226C96.0281 39.2138 96.2982 38.9436 96.6456 38.9436H99.8105C100.119 38.9436 100.351 39.1752 100.428 39.4454V42.1086H100.505C101.47 39.7156 102.782 38.5963 105.137 38.5963C106.642 38.5963 108.147 39.1366 109.112 40.6419C110 42.0314 110 44.3858 110 46.084V57.084C109.961 57.3928 109.691 57.6243 109.344 57.6243H105.947C105.639 57.5857 105.368 57.3542 105.33 57.084V47.5893C105.33 45.6594 105.561 42.8805 103.207 42.8805C102.396 42.8805 101.625 43.4208 101.239 44.27C100.775 45.3507 100.698 46.3928 100.698 47.5893V57.0068C100.66 57.3542 100.351 57.6243 100.004 57.6243ZM54.6526 49.2875C54.6526 50.5998 54.6912 51.7191 54.0351 52.9156C53.4947 53.8805 52.6456 54.4594 51.6807 54.4594C50.3684 54.4594 49.5965 53.4559 49.5965 51.9893C49.5965 49.0945 52.1825 48.5542 54.6526 48.5542V49.2875ZM58.0877 57.5858C57.8561 57.7787 57.5474 57.8173 57.2772 57.6629C56.1579 56.7366 55.9263 56.2735 55.3088 55.3858C53.4561 57.277 52.1053 57.8559 49.7123 57.8559C46.8561 57.8559 44.6175 56.0805 44.6175 52.5682C44.6175 49.7893 46.1228 47.9366 48.2456 47.0103C50.0982 46.1998 52.6842 46.0454 54.6526 45.8138V45.3893C54.6526 44.5787 54.7298 43.6138 54.2281 42.9191C53.8035 42.3015 53.0316 42.0314 52.3368 42.0314C51.0246 42.0314 49.8667 42.6875 49.5965 44.077C49.5193 44.3858 49.3263 44.6945 49.0175 44.6945L45.7368 44.3472C45.4667 44.27 45.1579 44.077 45.2351 43.6524C46.007 39.6384 49.5965 38.4419 52.8386 38.4419C54.4982 38.4419 56.6597 38.8665 57.9719 40.1401C59.6316 41.684 59.4772 43.7682 59.4772 46.0068V51.2945C59.4772 52.877 60.1333 53.5717 60.7509 54.4594C60.9825 54.7682 61.021 55.1542 60.7509 55.3472C60.0175 55.9261 58.7825 57.0068 58.0877 57.5858ZM10.0737 49.2875C10.0737 50.5998 10.1123 51.7191 9.45614 52.9156C8.91579 53.8805 8.06666 54.4594 7.10175 54.4594C5.78947 54.4594 5.01754 53.4559 5.01754 51.9893C5.01754 49.0945 7.60351 48.5542 10.0737 48.5542V49.2875ZM13.4702 57.5858C13.2386 57.7787 12.9298 57.8173 12.6596 57.6629C11.5404 56.7366 11.3088 56.2735 10.6912 55.3858C8.83859 57.277 7.48772 57.8559 5.09474 57.8559C2.2386 57.8559 0 56.0805 0 52.5682C0 49.7893 1.50526 47.9366 3.62807 47.0103C5.4807 46.1998 8.06667 46.0454 10.0351 45.8138V45.3893C10.0351 44.5787 10.1123 43.6138 9.61052 42.9191C9.18596 42.3015 8.41403 42.0314 7.7193 42.0314C6.40702 42.0314 5.24912 42.6875 4.97894 44.077C4.90175 44.3858 4.70877 44.6945 4.4 44.6945L1.1193 44.3472C0.84912 44.27 0.540353 44.077 0.617546 43.6524C1.38948 39.6384 4.97895 38.4419 8.22105 38.4419C9.8807 38.4419 12.0421 38.8665 13.3544 40.1401C15.014 41.684 14.8596 43.7682 14.8596 46.0068V51.2945C14.8596 52.877 15.5158 53.5717 16.1333 54.4594C16.3649 54.7682 16.4035 55.1542 16.1333 55.3472C15.4 55.9261 14.1649 57.0068 13.4702 57.5858Z" fill="#ACACAC"/>
</g>
<defs>
<clipPath id="clip0_1260_34439">
<rect width="110" height="110" fill="white"/>
</clipPath>
</defs>
</svg>
