<svg width="111" height="111" viewBox="0 0 111 111" fill="none" xmlns="http://www.w3.org/2000/svg">
<g clip-path="url(#clip0_1259_34365)">
<g clip-path="url(#clip1_1259_34365)">
<path d="M11.53 38H14.8795V38.6318H14.2486C14.1383 38.6318 13.9459 38.7593 13.6687 39.0115C13.3915 39.2637 13.2528 39.462 13.2528 39.5923V49.2257C13.2528 49.3588 13.3915 49.5515 13.6687 49.8065C13.9459 50.0615 14.1383 50.189 14.2486 50.189H14.8795V50.818H9.93725V50.1833H10.5681C10.6784 50.1833 10.868 50.0558 11.1339 49.8008C11.3998 49.5458 11.5328 49.3532 11.5328 49.22V39.8927L6.88759 51.0475L2.24803 39.7V49.2228C2.24803 49.356 2.38099 49.5487 2.64409 49.8037C2.90718 50.0587 3.09956 50.1862 3.20989 50.1862H3.83793V50.8152H-0.139648V50.1833H0.491219C0.624182 50.1833 0.822211 50.0558 1.08814 49.8008C1.35406 49.5458 1.4842 49.3532 1.4842 49.22V39.5923C1.4842 39.462 1.35123 39.2665 1.08814 39.0115C0.82504 38.7565 0.624182 38.6318 0.491219 38.6318H-0.139648V38H3.572L7.41944 47.5965H7.51845L11.53 38ZM19.488 49.5203C20.0525 49.554 20.6151 49.4284 21.1118 49.1577C21.5239 48.875 21.864 48.4995 22.1048 48.0612H22.6366C22.4003 48.8842 21.948 49.6288 21.3268 50.2173C20.6454 50.7833 19.7747 51.0689 18.891 51.0163C18.3656 51.0354 17.843 50.9311 17.365 50.7116C16.887 50.4922 16.467 50.1638 16.1384 49.7527C15.4491 48.8998 15.0852 47.8293 15.1115 46.7323C15.0808 46.1453 15.1673 45.558 15.3659 45.0048C15.5646 44.4517 15.8715 43.9438 16.2686 43.5108C16.6237 43.1283 17.0549 42.8243 17.5343 42.6184C18.0136 42.4125 18.5307 42.3092 19.0523 42.3152C19.6195 42.3021 20.1834 42.4043 20.7101 42.6155C21.1881 42.8195 21.6259 43.1074 22.0029 43.4655L20.795 45.3667L20.297 45.3978C20.4101 44.832 20.376 44.2466 20.198 43.6978C20.0923 43.4424 19.9042 43.2299 19.6636 43.0943C19.4231 42.9587 19.1441 42.9078 18.8712 42.9498C18.5156 42.9272 18.1602 42.9979 17.8402 43.1549C17.5202 43.3119 17.2466 43.5498 17.0465 43.8452C16.6195 44.5557 16.4118 45.3769 16.4496 46.2053C16.4257 47.0637 16.7143 47.9016 17.2615 48.5627C17.5366 48.88 17.8797 49.131 18.2652 49.2968C18.6508 49.4627 19.0688 49.5391 19.488 49.5203ZM27.709 50.8152H22.7017V50.1833H23.3411C23.474 50.1833 23.672 50.0558 23.938 49.8008C24.2039 49.5458 24.334 49.3532 24.334 49.22V39.5923C24.334 39.462 24.2039 39.2665 23.938 39.0115C23.672 38.7565 23.4655 38.6318 23.3411 38.6318H22.7017V38H27.709V38.6318H27.0782C26.9452 38.6318 26.7472 38.7593 26.4812 39.0115C26.2153 39.2637 26.0852 39.462 26.0852 39.5923V44.8397L30.6597 39.7255C30.7474 39.615 30.6597 39.4053 30.4277 39.0965C30.1957 38.7877 30.0062 38.6318 29.8958 38.6318H29.2819V38H33.9215V38.6318H33.2906C32.979 38.7391 32.6929 38.9099 32.4504 39.1333C32.0063 39.4762 31.7432 39.7 31.6527 39.7822L28.5407 43.134L33.0162 49.084C33.2334 49.3375 33.4836 49.5605 33.7603 49.747C33.9824 49.9516 34.2501 50.1002 34.5411 50.1805H35.469C35.6887 50.1349 35.8874 50.0184 36.0348 49.849C36.2781 49.6252 36.3997 49.4382 36.3997 49.2823V44.0435C36.3997 43.9103 36.2781 43.7318 36.0348 43.5108C35.8874 43.3414 35.6887 43.225 35.469 43.1793H34.9682V42.5475H37.9189V49.288C37.9189 49.4438 38.0462 49.6308 38.3008 49.8547C38.4473 50.0154 38.6368 50.1304 38.8468 50.1862H39.8766C39.9869 50.1862 40.1595 50.0757 40.4056 49.8547C40.6517 49.6337 40.7705 49.4438 40.7705 49.288V44.0435C40.7705 43.9103 40.6489 43.7318 40.4056 43.5108C40.1623 43.2898 39.9869 43.1793 39.8766 43.1793H39.3447V42.5475H41.9644L42.2953 44.2333C42.7451 43.7576 43.2272 43.3136 43.7381 42.9045C44.257 42.5138 44.8943 42.3137 45.543 42.3378C45.8477 42.3323 46.1502 42.3884 46.4327 42.5028C46.7151 42.6173 46.9716 42.7876 47.1867 43.0037C47.4131 43.2284 47.5903 43.4979 47.7072 43.795C47.8241 44.092 47.8781 44.4101 47.8656 44.7292V49.288C47.8656 49.4438 47.9873 49.6308 48.2306 49.8547C48.4739 50.0785 48.6493 50.1862 48.7596 50.1862H49.2915V50.8152H44.9489V50.1833H45.4072C45.6267 50.1371 45.8253 50.0208 45.973 49.8518C46.2163 49.628 46.338 49.441 46.338 49.2852V44.8397C46.3541 44.4677 46.2356 44.1025 46.0042 43.8112C45.88 43.6732 45.726 43.5654 45.5539 43.4962C45.3818 43.4269 45.1962 43.398 45.0112 43.4117C44.3554 43.4317 43.7227 43.6588 43.2035 44.0605C42.5981 44.4912 42.2953 44.851 42.2953 45.14V49.288C42.2953 49.4438 42.417 49.6308 42.6603 49.8547C42.8077 50.0241 43.0064 50.1405 43.2261 50.1862H43.69V50.8152H31.828L27.378 44.409L26.0852 45.803V49.2228C26.0852 49.356 26.2153 49.5487 26.4812 49.8037C26.7472 50.0587 26.9452 50.1862 27.0782 50.1862H27.709V50.8152ZM32.1506 65.2652L32.1109 65.2255C32.5325 65.5797 32.9596 65.9338 33.3897 66.288C33.8197 66.6422 34.278 66.985 34.7646 67.3193H35.5256V67.9823H34.1337C33.567 67.992 33.0039 67.8909 32.4759 67.6848C31.9119 67.432 31.3959 67.083 30.9511 66.6535C30.4493 67.1596 29.8442 67.551 29.1773 67.801C28.4056 68.0698 27.5922 68.1984 26.7755 68.1807C25.7373 68.1861 24.7323 67.8147 23.9465 67.1352C23.5398 66.8065 23.2144 66.3883 22.9955 65.9131C22.7767 65.4379 22.6703 64.9185 22.6847 64.3953C22.6763 63.6172 22.8714 62.8504 23.2505 62.1712C23.6183 61.5186 24.1338 60.9616 24.7555 60.5448C24.4581 60.1666 24.2073 59.7537 24.0087 59.3152C23.8128 58.8542 23.7164 58.3569 23.7258 57.856C23.7021 57.4656 23.7638 57.0747 23.9064 56.7107C24.0491 56.3466 24.2694 56.0181 24.5519 55.748C25.1836 55.2211 25.9914 54.9538 26.8122 55C27.2851 54.984 27.7572 55.0512 28.2069 55.1983C28.5019 55.3198 28.8161 55.3879 29.1348 55.3995C29.2574 55.4025 29.3799 55.3911 29.4998 55.3655C29.6001 55.3325 29.6835 55.2612 29.7318 55.1672H30.2976V58.1875H29.7318C29.6439 57.5638 29.3442 56.9895 28.8831 56.5612C28.626 56.2537 28.3037 56.0077 27.9395 55.841C27.5753 55.6743 27.1786 55.5912 26.7783 55.5978C26.1968 55.5658 25.6222 55.736 25.1516 56.0795C24.9542 56.241 24.7973 56.4466 24.6936 56.6799C24.5899 56.9131 24.5424 57.1675 24.5547 57.4225C24.5514 57.922 24.7282 58.4059 25.0526 58.7853C25.4096 59.2021 25.866 59.5218 26.3794 59.7147C27.196 60.6024 28.0796 61.4931 29.0302 62.3865C29.9807 63.2799 30.8869 64.1158 31.7488 64.894C31.9847 64.5152 32.1586 64.101 32.2637 63.6672C32.3674 63.2022 32.4177 62.7269 32.4137 62.2505C32.4251 61.9947 32.3822 61.7393 32.2875 61.5014C32.1929 61.2635 32.0488 61.0485 31.8648 60.8707C31.4597 60.5127 30.9304 60.3286 30.3909 60.3578V59.7147H34.9399V60.3125H34.4449C34.3345 60.3125 34.1167 60.4995 33.797 60.8792C33.5588 61.1025 33.3915 61.3913 33.3161 61.7093V61.7433C33.2942 62.381 33.1828 63.0124 32.9851 63.619C32.795 64.2065 32.5133 64.7601 32.1506 65.2595V65.2652ZM27.808 67.1918C28.3312 67.1989 28.8519 67.1204 29.3498 66.9595C29.7915 66.8111 30.2097 66.6003 30.5918 66.3333L30.4928 66.2682C29.5498 65.4257 28.6218 64.5625 27.709 63.6785C26.7962 62.7945 25.9117 61.8642 25.0554 60.8877C24.7393 61.2194 24.4819 61.6027 24.2944 62.021C24.0971 62.5277 24.0066 63.0699 24.0285 63.6133C24.0413 64.0885 24.156 64.5553 24.365 64.9821C24.5739 65.4089 24.8721 65.7857 25.2393 66.0868C25.9229 66.7695 26.8429 67.1622 27.808 67.1833V67.1918ZM36.991 40.5245H36.957C36.6791 40.527 36.4115 40.419 36.213 40.2242C36.111 40.1321 36.03 40.0192 35.9753 39.8931C35.9206 39.767 35.8937 39.6306 35.8962 39.4932V39.462C35.8881 39.3163 35.9123 39.1706 35.9671 39.0354C36.0219 38.9002 36.1059 38.7789 36.213 38.68C36.4317 38.4985 36.7069 38.3991 36.991 38.3991C37.275 38.3991 37.5502 38.4985 37.7689 38.68C37.8761 38.7789 37.9601 38.9002 38.0149 39.0354C38.0696 39.1706 38.0939 39.3163 38.0858 39.462H38.0518C38.0745 39.462 38.0858 39.462 38.0858 39.4932C38.0883 39.6306 38.0613 39.767 38.0066 39.8931C37.952 40.0192 37.8709 40.1321 37.7689 40.2242C37.5803 40.4148 37.324 40.5228 37.056 40.5245H36.991ZM45.4072 67.1182C46.3169 67.1707 47.2204 66.939 47.993 66.4552C48.6619 65.9508 49.1963 65.2891 49.5489 64.5285H50.2165C49.8504 65.607 49.1682 66.55 48.2589 67.2343C47.3237 67.9048 46.1947 68.2492 45.0451 68.2147C44.2074 68.2448 43.3739 68.0815 42.6092 67.7377C41.8445 67.3938 41.1689 66.8784 40.6347 66.2313C39.5271 64.9079 38.9378 63.2261 38.9769 61.4997C38.9323 59.8197 39.4712 58.1764 40.5018 56.8502C41.0019 56.2193 41.6441 55.7161 42.3758 55.3817C43.1074 55.0473 43.9078 54.8913 44.7113 54.9263C45.3102 54.9126 45.9065 55.0087 46.471 55.2097C46.9457 55.3973 47.4515 55.4934 47.9618 55.493C48.121 55.5008 48.2797 55.4717 48.4258 55.408C48.549 55.3447 48.6608 55.2614 48.7568 55.1615H49.2207V59.6807H48.6549C48.5593 58.7688 48.2027 57.9039 47.628 57.1902C47.3211 56.7166 46.8974 56.3303 46.3979 56.0688C45.8983 55.8072 45.3398 55.6791 44.7764 55.697C44.2959 55.6714 43.8153 55.7453 43.3646 55.9139C42.9139 56.0826 42.5027 56.3425 42.1567 56.6773C41.4257 57.5586 41.0254 58.6681 41.0251 59.8138V59.7487C41.0025 59.9923 40.9855 60.236 40.9742 60.4797C40.9742 60.7233 40.9572 60.9755 40.9572 61.2418C40.9572 61.5507 40.9572 61.868 40.9912 62.1882C41.0251 62.5083 41.0364 62.803 41.0562 63.0693C41.1445 64.1466 41.6011 65.1604 42.3491 65.9395C42.7476 66.34 43.2259 66.652 43.7528 66.8551C44.2797 67.0581 44.8434 67.1478 45.4072 67.1182ZM55.8745 48.4918C55.8942 48.8376 55.8375 49.1834 55.7084 49.5047C55.5793 49.826 55.381 50.1148 55.1277 50.3505C54.5993 50.8064 53.9178 51.0443 53.2209 51.0163C52.7659 51.0301 52.3133 50.945 51.8941 50.767C51.5635 50.6056 51.201 50.5204 50.8333 50.5177C50.7069 50.5054 50.5799 50.5342 50.4712 50.5998L50.2052 50.8152H49.8205V47.894H50.3184C50.4108 48.4633 50.6835 48.9878 51.0964 49.39C51.3587 49.6977 51.6877 49.9414 52.0584 50.1025C52.429 50.2636 52.8315 50.3377 53.2351 50.3193C53.6498 50.341 54.0626 50.2489 54.4289 50.053C54.5701 49.9629 54.6845 49.8365 54.7602 49.687C54.8358 49.5374 54.8699 49.3703 54.8589 49.203C54.8741 49.0036 54.8343 48.8039 54.744 48.6256C54.6538 48.4472 54.5164 48.2971 54.3469 48.1915C54.0116 47.985 53.6629 47.8014 53.303 47.6418C52.9918 47.5115 52.7117 47.3897 52.4543 47.2792C52.1968 47.1687 51.9055 47.0468 51.5745 46.9137C51.106 46.6969 50.6798 46.3986 50.3156 46.0325C50.1457 45.8474 50.0142 45.6304 49.9287 45.394C49.8432 45.1576 49.8055 44.9066 49.8177 44.6555C49.797 44.3406 49.8458 44.025 49.9607 43.7312C50.0756 43.4374 50.2538 43.1725 50.4825 42.9555C50.9078 42.6535 51.4014 42.462 51.9188 42.3982C52.4363 42.3344 52.9615 42.4003 53.4473 42.59C53.7313 42.7315 54.0438 42.8061 54.361 42.8082C54.4579 42.8113 54.5543 42.7939 54.6439 42.7572C54.7259 42.7207 54.7914 42.6551 54.8278 42.573H55.2578V45.123H54.7599C54.6795 44.6193 54.4418 44.1541 54.081 43.7942C53.8594 43.5228 53.5781 43.3066 53.259 43.1626C52.9399 43.0185 52.5918 42.9506 52.2421 42.964C51.8586 42.9326 51.4765 43.0391 51.1643 43.2643C51.0524 43.3566 50.9629 43.4732 50.9026 43.6053C50.8423 43.7373 50.8128 43.8814 50.8163 44.0265C50.8061 44.1792 50.8341 44.3319 50.8978 44.471C50.9616 44.61 51.059 44.7309 51.1812 44.8227C51.4947 45.0407 51.8271 45.2304 52.1742 45.3893C52.4854 45.5197 52.7768 45.6415 53.054 45.752L53.965 46.1175C54.4404 46.3176 54.8778 46.5984 55.2578 46.9477C55.4675 47.1428 55.6325 47.3811 55.7415 47.6462C55.8504 47.9113 55.9006 48.1969 55.8887 48.4833L55.8745 48.4918ZM58.0444 60.644C58.4661 61.0562 58.7952 61.5538 59.0098 62.1034C59.2245 62.653 59.3197 63.2421 59.2891 63.8315C59.3192 64.4234 59.2238 65.0149 59.0093 65.5672C58.7948 66.1195 58.4659 66.6201 58.0444 67.036C57.2828 67.7936 56.2521 68.2176 55.1786 68.2147C54.0933 68.2227 53.0493 67.7987 52.2761 67.036C51.855 66.6198 51.5267 66.1192 51.3127 65.5669C51.0986 65.0146 51.0037 64.4232 51.0341 63.8315C51.0023 63.2688 51.0863 62.7055 51.2807 62.1766C51.4751 61.6477 51.776 61.1644 52.1645 60.7566C52.5531 60.3489 53.0211 60.0254 53.5395 59.8062C54.058 59.587 54.6159 59.4768 55.1786 59.4823C56.2539 59.4746 57.2888 59.892 58.0585 60.644H58.0444ZM57.6455 65.2V65.2652C57.6681 65.0215 57.6823 64.7778 57.6936 64.5342C57.7049 64.2905 57.7106 64.0468 57.7106 63.8032C57.7106 63.5595 57.7106 63.3243 57.6936 63.092C57.6766 62.8597 57.6681 62.6415 57.6455 62.4432C57.5939 61.837 57.3432 61.2651 56.9326 60.8168C56.6986 60.6036 56.4236 60.4406 56.1244 60.3378C55.8252 60.235 55.5081 60.1946 55.1928 60.219C54.884 60.1971 54.5741 60.2389 54.2822 60.3417C53.9902 60.4445 53.7224 60.6062 53.4954 60.8168C53.0892 61.2545 52.8386 61.8143 52.7825 62.4092V62.3667C52.7385 62.5967 52.7111 62.8297 52.7004 63.0637C52.7004 63.3073 52.6834 63.551 52.6834 63.7918C52.6834 64.0327 52.6834 64.2735 52.7004 64.5058C52.7103 64.724 52.7377 64.941 52.7825 65.1547C52.848 65.747 53.0973 66.3039 53.4954 66.747C53.7175 66.9667 53.9836 67.1367 54.2763 67.2456C54.5689 67.3545 54.8813 67.3999 55.1928 67.3788C55.5124 67.4069 55.8343 67.3666 56.1372 67.2606C56.4401 67.1546 56.717 66.9853 56.9496 66.764C57.337 66.327 57.5801 65.7807 57.6455 65.2ZM60.3642 51.0333C59.8411 51.0433 59.3227 50.9333 58.8485 50.7118C58.3744 50.4904 57.9571 50.1633 57.6285 49.7555C56.9117 48.9073 56.5285 47.8263 56.5507 46.7153C56.5164 45.5763 56.9067 44.4653 57.6455 43.5987C57.9734 43.1978 58.3894 42.8782 58.861 42.6649C59.3326 42.4516 59.847 42.3503 60.3642 42.369C60.7655 42.3466 61.167 42.4109 61.5414 42.5576C61.9158 42.7042 62.2543 42.9298 62.534 43.219C63.0533 43.7754 63.3547 44.5007 63.3827 45.2618L63.4167 45.8597L57.9114 46.3017C57.9226 47.0975 58.2017 47.8662 58.7035 48.4833C58.9557 48.8225 59.2867 49.095 59.6677 49.2772C60.0488 49.4594 60.4685 49.5457 60.8904 49.5288C61.4602 49.5609 62.0278 49.4355 62.5312 49.1662C62.9412 48.8985 63.2777 48.5322 63.51 48.1008H64.0079C63.7972 48.9196 63.3598 49.6621 62.7462 50.2428C62.0784 50.793 61.2273 51.0693 60.3642 51.0163V51.0333ZM60.3302 42.998C59.9686 42.9678 59.6055 43.033 59.2769 43.1871C58.9483 43.3412 58.6658 43.5788 58.4574 43.8763C58.084 44.4213 57.8713 45.0605 57.8435 45.7208L61.988 45.3667C62.0589 44.8111 61.9959 44.2466 61.8041 43.7205C61.6231 43.2294 61.1318 42.9829 60.3302 42.981V42.998ZM70.3421 67.3647C70.475 67.3647 70.6561 67.2485 70.888 67.0162C71.12 66.7838 71.236 66.6025 71.236 66.4693V61.936C71.2509 61.5822 71.1396 61.2347 70.922 60.9557C70.7936 60.8194 70.636 60.7141 70.461 60.6479C70.2861 60.5816 70.0983 60.556 69.912 60.5732C69.325 60.5927 68.7601 60.8025 68.3023 61.171C67.7611 61.5714 67.4904 61.9039 67.4904 62.1683V66.4835C67.4904 66.6167 67.6064 66.798 67.8384 67.0303C68.0704 67.2627 68.2429 67.3788 68.3533 67.3788H68.8512V68.0107H64.6077V67.3788H65.0716C65.2046 67.3788 65.3856 67.2627 65.6176 67.0303C65.8496 66.798 65.9656 66.6167 65.9656 66.4835V61.9502C65.9838 61.5828 65.8659 61.2216 65.6346 60.9358C65.5073 60.8022 65.3519 60.6985 65.1797 60.6324C65.0074 60.5662 64.8227 60.5392 64.6388 60.5533C64.0365 60.5731 63.4584 60.7957 62.998 61.1852C62.4567 61.6045 62.186 61.9587 62.186 62.2477V66.4977C62.186 66.6308 62.302 66.8122 62.534 67.0445C62.766 67.2768 62.9499 67.393 63.0828 67.393H63.5468V68.0248H59.3033V67.393H59.8012C59.9115 67.393 60.0841 67.2768 60.3132 67.0445C60.5424 66.8122 60.6612 66.6308 60.6612 66.4977V61.2078C60.6612 61.0775 60.5452 60.899 60.3132 60.678C60.0813 60.457 59.9115 60.3465 59.8012 60.3465H59.3033V59.7147H61.8494L62.1804 61.3098C62.667 60.7998 63.1092 60.3729 63.5072 60.0292C63.9922 59.6578 64.5954 59.4755 65.2046 59.5163C65.7255 59.5058 66.2361 59.6627 66.6615 59.964C66.8732 60.1171 67.0506 60.313 67.1822 60.5389C67.3137 60.7648 67.3966 61.0159 67.4254 61.2758C67.9317 60.7885 68.3985 60.3777 68.8172 60.0462C69.2967 59.6952 69.8818 59.5192 70.475 59.5475C71.0756 59.5327 71.6582 59.7533 72.0989 60.1623C72.3271 60.3892 72.5045 60.6623 72.6191 60.9632C72.7338 61.2642 72.783 61.5861 72.7637 61.9077V66.441C72.7637 66.5742 72.8797 66.7555 73.1116 66.9878C73.3436 67.2202 73.5134 67.3363 73.6237 67.3363H74.1216V67.9682H69.8781V67.3363L70.3421 67.3647ZM64.8057 44.1313C64.6674 43.9146 64.4933 43.7229 64.2908 43.5647C64.0079 43.321 63.8212 43.1992 63.725 43.1992H63.3601V42.5475H67.8356V43.1793H67.3065C67.1962 43.1793 67.0519 43.2898 66.8765 43.5108C66.7282 43.6654 66.6348 43.8645 66.6106 44.0775L68.5909 48.1603L70.4156 44.1087C70.4166 43.9973 70.395 43.887 70.3522 43.7842C70.3094 43.6815 70.2463 43.5885 70.1667 43.5108C69.9781 43.2898 69.8281 43.1793 69.7168 43.1793H69.1708V42.5475H72.5204V43.1793H72.1554C72.0451 43.1793 71.8725 43.2955 71.6406 43.5278C71.4586 43.6936 71.3072 43.8902 71.1936 44.1087L68.3646 50.1182L65.9316 54.8017L65.2102 54.4333L67.7281 49.883L64.8057 44.1313ZM79.8249 59.505C80.2872 59.4867 80.7468 59.5832 81.1629 59.7859C81.579 59.9886 81.9386 60.2911 82.2097 60.6667C82.8157 61.5657 83.1136 62.6377 83.0584 63.721C83.1029 64.8614 82.7642 65.9837 82.0965 66.9085C81.8211 67.3029 81.4537 67.6242 81.0263 67.8444C80.599 68.0646 80.1244 68.1771 79.6438 68.1722C79.036 68.2029 78.4322 68.0584 77.904 67.7557C77.4368 67.439 77.0549 67.0118 76.7922 66.5118V70.4955C76.7922 70.6513 76.9138 70.8383 77.1571 71.0622C77.4004 71.286 77.5786 71.3937 77.689 71.3937H78.2236V72H73.8557V71.3682H74.3875C74.6018 71.3229 74.7944 71.206 74.9335 71.0367C75.1181 70.8997 75.2427 70.6967 75.2815 70.47V61.2078C75.2815 61.0775 75.1655 60.899 74.9335 60.678C74.7944 60.5086 74.6018 60.3917 74.3875 60.3465H73.8557V59.6807H76.5404L76.8063 61.409C77.1084 60.8262 77.546 60.3248 78.0822 59.947C78.605 59.6243 79.211 59.4627 79.8249 59.4823V59.505ZM81.4827 65.0838V65.115L81.5477 64.452C81.5703 64.2317 81.5816 64.0104 81.5817 63.789C81.582 63.5949 81.5707 63.4009 81.5477 63.2082C81.5251 63.0183 81.5025 62.837 81.4827 62.6585C81.4284 62.0773 81.1962 61.5272 80.8178 61.0832C80.6364 60.8927 80.4162 60.7435 80.1721 60.6457C79.9281 60.5479 79.6659 60.5039 79.4033 60.5165C79.0974 60.5036 78.7922 60.5543 78.5069 60.6655C78.2215 60.7767 77.9623 60.9459 77.7455 61.1625C77.3134 61.6178 76.9953 62.1694 76.8176 62.7718V64.9308C76.8142 65.2405 76.8742 65.5476 76.9939 65.8332C77.1136 66.1187 77.2905 66.3767 77.5136 66.5912C77.7338 66.8175 77.9981 66.9961 78.2901 67.116C78.582 67.2359 78.8955 67.2945 79.211 67.2882H79.2449C79.5389 67.3107 79.8342 67.2672 80.1093 67.1608C80.3843 67.0544 80.6322 66.8879 80.8348 66.6733C81.2057 66.2122 81.4312 65.651 81.4827 65.0612V65.0838ZM100.213 66.4778C100.213 66.611 100.335 66.7923 100.578 67.0247C100.822 67.257 100.997 67.3732 101.107 67.3732H101.605V68.005H97.2628V67.3732H97.7437C97.8569 67.3732 98.0266 67.257 98.2756 67.0247C98.5245 66.7923 98.6405 66.611 98.6405 66.4778V61.9728C98.6522 61.6099 98.5416 61.2537 98.3265 60.9613C98.2087 60.8184 98.0582 60.7059 97.8879 60.6334C97.7175 60.561 97.5322 60.5306 97.3477 60.5448C96.6898 60.5664 96.0561 60.7988 95.5399 61.2078C94.9308 61.6536 94.6271 62.0078 94.629 62.2703V66.4552C94.629 66.611 94.7507 66.798 94.994 67.0218C95.1413 67.1913 95.3401 67.3077 95.5598 67.3533H96.0463V67.9852H89.0078L88.7758 66.2597C88.4271 66.7187 88.039 67.1462 87.6159 67.5375C87.1855 67.9428 86.6139 68.1634 86.0232 68.1523C85.7448 68.1543 85.469 68.0993 85.2126 67.9907C84.9562 67.882 84.7247 67.722 84.5323 67.5205C84.3218 67.307 84.1572 67.0525 84.0487 66.7728C83.9402 66.4931 83.8901 66.194 83.9014 65.8942C83.8698 65.5421 83.9386 65.1882 84.0998 64.8737C84.2611 64.5592 84.5082 64.297 84.8124 64.1177C85.3667 63.7963 85.964 63.5559 86.5862 63.4037L88.7419 62.9702L88.7758 61.9757C88.8007 61.4744 88.6349 60.9823 88.3119 60.5987C88.0967 60.4066 87.844 60.2615 87.5698 60.1727C87.2955 60.0839 87.0058 60.0534 86.7191 60.083C86.441 60.0495 86.159 60.0937 85.9044 60.2108C85.6498 60.3278 85.4324 60.513 85.2763 60.746C85.1523 61.0201 85.0952 61.3199 85.11 61.6204C85.1248 61.921 85.2109 62.2138 85.3612 62.4743H84.7643L83.6327 60.814C84.0859 60.3676 84.6258 60.0193 85.2191 59.7907C85.8123 59.5621 86.4462 59.4581 87.0812 59.4852C87.893 59.4574 88.6931 59.6842 89.3699 60.134C89.6715 60.3414 89.9151 60.6226 90.0775 60.9509C90.2399 61.2793 90.3157 61.6437 90.2978 62.0097V66.458C90.2978 66.5912 90.4195 66.7668 90.6628 66.9878C90.9061 67.2088 91.0814 67.3222 91.1918 67.3222H92.1876C92.4079 67.2764 92.6068 67.1588 92.7534 66.9878C92.9967 66.7668 93.1183 66.5912 93.1183 66.458V61.2078C93.1183 61.0775 92.9967 60.899 92.7534 60.678C92.606 60.5086 92.4073 60.3921 92.1876 60.3465H91.6897V59.6807H94.3093L94.6403 61.409C95.0835 60.9368 95.556 60.493 96.0548 60.0802C96.5773 59.6838 97.2219 59.4833 97.8767 59.5135C98.1806 59.508 98.4826 59.5638 98.7645 59.6778C99.0464 59.7917 99.3025 59.9613 99.5175 60.1765C99.7449 60.4013 99.923 60.6711 100.04 60.9687C100.158 61.2663 100.212 61.5851 100.199 61.9048L100.213 66.4778ZM88.7758 63.534L86.7955 64.0327C86.3703 64.1019 85.9828 64.3185 85.7007 64.6447C85.4956 64.9422 85.3905 65.2976 85.4008 65.659V65.6902C85.3983 65.8593 85.4292 66.0272 85.4919 66.1843C85.5545 66.3414 85.6476 66.4845 85.7658 66.6053C85.8801 66.7283 86.0191 66.8257 86.1736 66.8911C86.3282 66.9566 86.4948 66.9886 86.6626 66.985H86.7106C87.1548 66.9671 87.578 66.7913 87.9045 66.4892C88.2409 66.2196 88.528 65.8937 88.7532 65.5258L88.7758 63.534ZM109.86 59.7147V60.3465H109.461C109.374 60.3465 109.213 60.4627 108.981 60.695C108.805 60.8631 108.644 61.046 108.5 61.2418L105.716 67.2853L103.229 71.9348L102.533 71.5693L105.02 67.019L102.103 61.2758C101.964 61.0598 101.79 60.8683 101.588 60.7092C101.305 60.4655 101.13 60.3437 101.042 60.3437H100.643V59.7147H105.119V60.3465H104.621C104.511 60.3465 104.361 60.457 104.174 60.678C104.019 60.8295 103.919 61.0292 103.891 61.2447L105.871 65.3303L107.705 61.2333C107.705 61.1267 107.683 61.0212 107.64 60.9236C107.597 60.8261 107.534 60.7385 107.456 60.6667C107.269 60.4457 107.119 60.3352 107.009 60.3352H106.48V59.7147H109.86Z" fill="#ACACAC"/>
</g>
</g>
<defs>
<clipPath id="clip0_1259_34365">
<rect width="110.14" height="110.14" fill="white"/>
</clipPath>
<clipPath id="clip1_1259_34365">
<rect width="110" height="34" fill="white" transform="translate(-0.139648 38)"/>
</clipPath>
</defs>
</svg>
