<svg width="111" height="111" viewBox="0 0 111 111" fill="none" xmlns="http://www.w3.org/2000/svg">
<g clip-path="url(#clip0_1260_34438)">
<path d="M13.5634 37.0972H14.5428C17.943 37.1711 21.2878 38.5386 23.6901 40.9594C22.8031 41.8648 21.8976 42.7334 21.0291 43.6389C19.6801 42.4192 18.0539 41.4768 16.2799 41.1441C13.6558 40.5898 10.8285 41.0887 8.62942 42.5855C6.22711 44.1563 4.60092 46.8173 4.24981 49.6631C3.86175 52.472 4.65636 55.4287 6.48582 57.6093C8.24136 59.7344 10.9209 61.0649 13.6928 61.1573C16.2799 61.3051 18.9779 60.5105 20.8628 58.6995C22.3411 57.4245 23.0248 55.4841 23.2466 53.5992C20.179 53.5992 17.1114 53.6177 14.0439 53.5992V49.7925H26.9609C27.6262 53.8764 26.6653 58.4778 23.5607 61.3975C21.4911 63.4672 18.6268 64.6869 15.707 64.9271C12.8797 65.2043 9.95994 64.6684 7.44674 63.3009C4.43461 61.6932 2.03229 58.9767 0.849612 55.7798C-0.25915 52.8416 -0.277629 49.5153 0.757215 46.5586C1.69966 43.8606 3.51064 41.4768 5.83904 39.8136C8.07504 38.169 10.7915 37.2635 13.5634 37.0972Z" fill="#ACACAC"/>
<path d="M87.666 38.0581H91.6206V64.4466C90.3086 64.4466 88.9781 64.4651 87.666 64.4282C87.6845 55.6505 87.666 46.8543 87.666 38.0581Z" fill="#ACACAC"/>
<path d="M35.7577 47.2054C38.197 46.7434 40.8395 47.2609 42.8538 48.7207C44.6833 50.0143 45.9583 52.047 46.3464 54.2645C46.8453 56.8332 46.217 59.642 44.5539 61.6748C42.7614 63.9477 39.8232 65.1674 36.9589 64.9826C34.3348 64.8347 31.7847 63.5227 30.2324 61.3791C28.4769 59.0137 28.0518 55.7614 29.0128 52.9895C29.9737 50.0143 32.6902 47.7413 35.7577 47.2054ZM36.3121 50.7165C35.3142 50.9752 34.3903 51.5481 33.725 52.3612C31.9325 54.5048 32.0434 57.9974 34.0207 59.9931C35.1479 61.1389 36.848 61.6748 38.4188 61.3606C39.8786 61.1019 41.1537 60.1225 41.8559 58.8289C43.0756 56.6299 42.7244 53.5993 40.858 51.8807C39.6569 50.7719 37.9013 50.31 36.3121 50.7165Z" fill="#ACACAC"/>
<path d="M55.3457 47.2053C58.136 46.6694 61.1851 47.4456 63.2733 49.4044C66.6735 52.4535 67.0431 58.1636 64.1418 61.6747C62.3863 63.8922 59.5405 65.1118 56.7316 64.9825C54.0521 64.9086 51.4096 63.578 49.8203 61.379C48.0278 58.9582 47.6398 55.6319 48.6561 52.8046C49.6725 49.9218 52.3335 47.7227 55.3457 47.2053ZM55.9 50.7164C54.9022 50.9751 53.9782 51.548 53.3129 52.3426C51.5389 54.4492 51.6128 57.8864 53.5162 59.9006C54.6435 61.1018 56.399 61.6931 58.0252 61.3605C59.4666 61.0833 60.7601 60.1224 61.4623 58.8288C62.6635 56.6113 62.3124 53.5807 60.4275 51.8621C59.2263 50.7534 57.4708 50.3099 55.9 50.7164Z" fill="#ACACAC"/>
<path d="M71.9583 48.2772C74.0834 46.9467 76.9108 46.5771 79.2022 47.7228C79.9229 48.037 80.5142 48.5729 81.0871 49.1088C81.1056 48.6098 81.0871 48.0924 81.1056 47.575C82.3437 47.5935 83.5818 47.575 84.8384 47.5935V63.8923C84.8199 66.35 84.1916 68.9556 82.4176 70.7481C80.4773 72.7254 77.5021 73.3352 74.8226 72.9287C71.9583 72.5037 69.4636 70.4155 68.3548 67.7729C69.4636 67.237 70.6278 66.812 71.7735 66.3131C72.4203 67.8284 73.7323 69.1219 75.377 69.4176C77.0216 69.7133 78.925 69.3067 79.9968 67.9393C81.1425 66.5348 81.1425 64.613 81.0871 62.8944C80.237 63.726 79.2576 64.4651 78.075 64.7423C75.5063 65.463 72.679 64.576 70.7017 62.839C68.7059 61.1019 67.5232 58.4224 67.6341 55.7614C67.6896 52.7492 69.3897 49.848 71.9583 48.2772ZM75.7835 50.6426C74.6563 50.8274 73.603 51.4557 72.8823 52.3242C71.1452 54.3939 71.1452 57.7017 72.9007 59.7344C73.8986 60.9356 75.5063 61.6008 77.0586 61.4345C78.5185 61.2867 79.8675 60.3627 80.5882 59.0876C81.8078 56.9256 81.6045 53.9873 79.9599 52.1024C78.9435 50.9382 77.3173 50.3654 75.7835 50.6426Z" fill="#ACACAC"/>
<path d="M96.3702 49.22C98.5877 47.1503 102.006 46.4481 104.852 47.5383C107.55 48.5547 109.269 51.1233 110.137 53.7659C106.127 55.429 102.136 57.0737 98.1257 58.7368C98.6801 59.7902 99.5302 60.7511 100.676 61.1392C102.284 61.712 104.205 61.5087 105.554 60.4369C106.09 60.0304 106.515 59.4945 106.922 58.9771C107.938 59.6608 108.955 60.3261 109.971 61.0098C108.53 63.1719 106.109 64.6872 103.503 64.9274C100.62 65.2785 97.5529 64.1698 95.6865 61.9153C92.6189 58.3673 92.9146 52.4169 96.3702 49.22ZM98.3475 52.6386C97.7192 53.5441 97.4605 54.6529 97.479 55.7432C100.158 54.6344 102.838 53.5257 105.517 52.3984C105.074 51.3636 104.002 50.7353 102.912 50.569C101.156 50.2548 99.3269 51.1973 98.3475 52.6386Z" fill="#ACACAC"/>
</g>
<defs>
<clipPath id="clip0_1260_34438">
<rect width="110.137" height="110.137" fill="white"/>
</clipPath>
</defs>
</svg>
