<svg
    className="h-6 w-6 mr-2"
    xmlns="http://www.w3.org/2000/svg"
    viewBox="0 0 48 48"
>
    <g fill="none" fillRule="evenodd">
        <path
            d="M9.827 24c0-1.524.253-2.985.705-4.356L2.623 13.604A23.88 23.88 0 0 0 .214 24c0 3.737.868 7.262 2.407 10.39l7.905-6.051A14.1 14.1 0 0 1 9.827 24"
            fill="#FBBC05"
        />
        <path
            d="M23.714 10.133c3.311 0 6.302 1.173 8.652 3.093L39.202 6.4c-4.166-3.627-9.507-5.867-15.489-5.867-9.286 0-17.267 5.311-21.089 13.071l7.909 6.04c1.823-5.532 7.017-9.511 13.181-9.511"
            fill="#EB4335"
        />
        <path
            d="M23.714 37.867c-6.164 0-11.358-3.979-13.181-9.511l-7.909 6.038C6.446 42.156 14.427 47.467 23.714 47.467c5.732 0 11.205-2.035 15.311-5.849l-7.507-5.804c-2.118 1.334-4.785 2.052-7.804 2.052"
            fill="#34A853"
        />
        <path
            d="M46.145 24c0-1.387-.213-2.88-.533-4.267H23.714v9.066h12.605c-.63 3.091-2.345 5.468-4.8 7.014l7.507 5.804C43.339 37.614 46.145 31.649 46.145 24"
            fill="#4285F4"
        />
    </g>
</svg>